<?xml version="1.0" encoding="UTF-8"?>
<svg xmlns="http://www.w3.org/2000/svg" xmlns:xlink="http://www.w3.org/1999/xlink" width="480pt" height="480pt" viewBox="0 0 480 480" version="1.2">
<g id="surface1">
<rect x="0" y="0" width="480" height="480" style="fill:rgb(100%,100%,100%);fill-opacity:1;stroke:none;"/>
<path style=" stroke:none;fill-rule:nonzero;fill:rgb(0%,0%,0%);fill-opacity:1;" d="M 0 0 L 19.199219 0 L 19.199219 19.199219 L 0 19.199219 Z M 0 0 "/>
<path style=" stroke:none;fill-rule:nonzero;fill:rgb(0%,0%,0%);fill-opacity:1;" d="M 19.199219 0 L 38.398438 0 L 38.398438 19.199219 L 19.199219 19.199219 Z M 19.199219 0 "/>
<path style=" stroke:none;fill-rule:nonzero;fill:rgb(0%,0%,0%);fill-opacity:1;" d="M 38.398438 0 L 57.597656 0 L 57.597656 19.199219 L 38.398438 19.199219 Z M 38.398438 0 "/>
<path style=" stroke:none;fill-rule:nonzero;fill:rgb(0%,0%,0%);fill-opacity:1;" d="M 57.601562 0 L 76.800781 0 L 76.800781 19.199219 L 57.601562 19.199219 Z M 57.601562 0 "/>
<path style=" stroke:none;fill-rule:nonzero;fill:rgb(0%,0%,0%);fill-opacity:1;" d="M 76.800781 0 L 96 0 L 96 19.199219 L 76.800781 19.199219 Z M 76.800781 0 "/>
<path style=" stroke:none;fill-rule:nonzero;fill:rgb(0%,0%,0%);fill-opacity:1;" d="M 96 0 L 115.199219 0 L 115.199219 19.199219 L 96 19.199219 Z M 96 0 "/>
<path style=" stroke:none;fill-rule:nonzero;fill:rgb(0%,0%,0%);fill-opacity:1;" d="M 115.199219 0 L 134.398438 0 L 134.398438 19.199219 L 115.199219 19.199219 Z M 115.199219 0 "/>
<path style=" stroke:none;fill-rule:nonzero;fill:rgb(0%,0%,0%);fill-opacity:1;" d="M 192 0 L 211.199219 0 L 211.199219 19.199219 L 192 19.199219 Z M 192 0 "/>
<path style=" stroke:none;fill-rule:nonzero;fill:rgb(0%,0%,0%);fill-opacity:1;" d="M 249.601562 0 L 268.800781 0 L 268.800781 19.199219 L 249.601562 19.199219 Z M 249.601562 0 "/>
<path style=" stroke:none;fill-rule:nonzero;fill:rgb(0%,0%,0%);fill-opacity:1;" d="M 268.800781 0 L 288 0 L 288 19.199219 L 268.800781 19.199219 Z M 268.800781 0 "/>
<path style=" stroke:none;fill-rule:nonzero;fill:rgb(0%,0%,0%);fill-opacity:1;" d="M 288 0 L 307.199219 0 L 307.199219 19.199219 L 288 19.199219 Z M 288 0 "/>
<path style=" stroke:none;fill-rule:nonzero;fill:rgb(0%,0%,0%);fill-opacity:1;" d="M 345.601562 0 L 364.800781 0 L 364.800781 19.199219 L 345.601562 19.199219 Z M 345.601562 0 "/>
<path style=" stroke:none;fill-rule:nonzero;fill:rgb(0%,0%,0%);fill-opacity:1;" d="M 364.800781 0 L 384 0 L 384 19.199219 L 364.800781 19.199219 Z M 364.800781 0 "/>
<path style=" stroke:none;fill-rule:nonzero;fill:rgb(0%,0%,0%);fill-opacity:1;" d="M 384 0 L 403.199219 0 L 403.199219 19.199219 L 384 19.199219 Z M 384 0 "/>
<path style=" stroke:none;fill-rule:nonzero;fill:rgb(0%,0%,0%);fill-opacity:1;" d="M 403.199219 0 L 422.398438 0 L 422.398438 19.199219 L 403.199219 19.199219 Z M 403.199219 0 "/>
<path style=" stroke:none;fill-rule:nonzero;fill:rgb(0%,0%,0%);fill-opacity:1;" d="M 422.398438 0 L 441.597656 0 L 441.597656 19.199219 L 422.398438 19.199219 Z M 422.398438 0 "/>
<path style=" stroke:none;fill-rule:nonzero;fill:rgb(0%,0%,0%);fill-opacity:1;" d="M 441.601562 0 L 460.800781 0 L 460.800781 19.199219 L 441.601562 19.199219 Z M 441.601562 0 "/>
<path style=" stroke:none;fill-rule:nonzero;fill:rgb(0%,0%,0%);fill-opacity:1;" d="M 460.800781 0 L 480 0 L 480 19.199219 L 460.800781 19.199219 Z M 460.800781 0 "/>
<path style=" stroke:none;fill-rule:nonzero;fill:rgb(0%,0%,0%);fill-opacity:1;" d="M 0 19.199219 L 19.199219 19.199219 L 19.199219 38.398438 L 0 38.398438 Z M 0 19.199219 "/>
<path style=" stroke:none;fill-rule:nonzero;fill:rgb(0%,0%,0%);fill-opacity:1;" d="M 115.199219 19.199219 L 134.398438 19.199219 L 134.398438 38.398438 L 115.199219 38.398438 Z M 115.199219 19.199219 "/>
<path style=" stroke:none;fill-rule:nonzero;fill:rgb(0%,0%,0%);fill-opacity:1;" d="M 172.800781 19.199219 L 192 19.199219 L 192 38.398438 L 172.800781 38.398438 Z M 172.800781 19.199219 "/>
<path style=" stroke:none;fill-rule:nonzero;fill:rgb(0%,0%,0%);fill-opacity:1;" d="M 249.601562 19.199219 L 268.800781 19.199219 L 268.800781 38.398438 L 249.601562 38.398438 Z M 249.601562 19.199219 "/>
<path style=" stroke:none;fill-rule:nonzero;fill:rgb(0%,0%,0%);fill-opacity:1;" d="M 288 19.199219 L 307.199219 19.199219 L 307.199219 38.398438 L 288 38.398438 Z M 288 19.199219 "/>
<path style=" stroke:none;fill-rule:nonzero;fill:rgb(0%,0%,0%);fill-opacity:1;" d="M 307.199219 19.199219 L 326.398438 19.199219 L 326.398438 38.398438 L 307.199219 38.398438 Z M 307.199219 19.199219 "/>
<path style=" stroke:none;fill-rule:nonzero;fill:rgb(0%,0%,0%);fill-opacity:1;" d="M 345.601562 19.199219 L 364.800781 19.199219 L 364.800781 38.398438 L 345.601562 38.398438 Z M 345.601562 19.199219 "/>
<path style=" stroke:none;fill-rule:nonzero;fill:rgb(0%,0%,0%);fill-opacity:1;" d="M 460.800781 19.199219 L 480 19.199219 L 480 38.398438 L 460.800781 38.398438 Z M 460.800781 19.199219 "/>
<path style=" stroke:none;fill-rule:nonzero;fill:rgb(0%,0%,0%);fill-opacity:1;" d="M 0 38.398438 L 19.199219 38.398438 L 19.199219 57.597656 L 0 57.597656 Z M 0 38.398438 "/>
<path style=" stroke:none;fill-rule:nonzero;fill:rgb(0%,0%,0%);fill-opacity:1;" d="M 38.398438 38.398438 L 57.597656 38.398438 L 57.597656 57.597656 L 38.398438 57.597656 Z M 38.398438 38.398438 "/>
<path style=" stroke:none;fill-rule:nonzero;fill:rgb(0%,0%,0%);fill-opacity:1;" d="M 57.601562 38.398438 L 76.800781 38.398438 L 76.800781 57.597656 L 57.601562 57.597656 Z M 57.601562 38.398438 "/>
<path style=" stroke:none;fill-rule:nonzero;fill:rgb(0%,0%,0%);fill-opacity:1;" d="M 76.800781 38.398438 L 96 38.398438 L 96 57.597656 L 76.800781 57.597656 Z M 76.800781 38.398438 "/>
<path style=" stroke:none;fill-rule:nonzero;fill:rgb(0%,0%,0%);fill-opacity:1;" d="M 115.199219 38.398438 L 134.398438 38.398438 L 134.398438 57.597656 L 115.199219 57.597656 Z M 115.199219 38.398438 "/>
<path style=" stroke:none;fill-rule:nonzero;fill:rgb(0%,0%,0%);fill-opacity:1;" d="M 153.601562 38.398438 L 172.800781 38.398438 L 172.800781 57.597656 L 153.601562 57.597656 Z M 153.601562 38.398438 "/>
<path style=" stroke:none;fill-rule:nonzero;fill:rgb(0%,0%,0%);fill-opacity:1;" d="M 211.199219 38.398438 L 230.398438 38.398438 L 230.398438 57.597656 L 211.199219 57.597656 Z M 211.199219 38.398438 "/>
<path style=" stroke:none;fill-rule:nonzero;fill:rgb(0%,0%,0%);fill-opacity:1;" d="M 268.800781 38.398438 L 288 38.398438 L 288 57.597656 L 268.800781 57.597656 Z M 268.800781 38.398438 "/>
<path style=" stroke:none;fill-rule:nonzero;fill:rgb(0%,0%,0%);fill-opacity:1;" d="M 288 38.398438 L 307.199219 38.398438 L 307.199219 57.597656 L 288 57.597656 Z M 288 38.398438 "/>
<path style=" stroke:none;fill-rule:nonzero;fill:rgb(0%,0%,0%);fill-opacity:1;" d="M 307.199219 38.398438 L 326.398438 38.398438 L 326.398438 57.597656 L 307.199219 57.597656 Z M 307.199219 38.398438 "/>
<path style=" stroke:none;fill-rule:nonzero;fill:rgb(0%,0%,0%);fill-opacity:1;" d="M 345.601562 38.398438 L 364.800781 38.398438 L 364.800781 57.597656 L 345.601562 57.597656 Z M 345.601562 38.398438 "/>
<path style=" stroke:none;fill-rule:nonzero;fill:rgb(0%,0%,0%);fill-opacity:1;" d="M 384 38.398438 L 403.199219 38.398438 L 403.199219 57.597656 L 384 57.597656 Z M 384 38.398438 "/>
<path style=" stroke:none;fill-rule:nonzero;fill:rgb(0%,0%,0%);fill-opacity:1;" d="M 403.199219 38.398438 L 422.398438 38.398438 L 422.398438 57.597656 L 403.199219 57.597656 Z M 403.199219 38.398438 "/>
<path style=" stroke:none;fill-rule:nonzero;fill:rgb(0%,0%,0%);fill-opacity:1;" d="M 422.398438 38.398438 L 441.597656 38.398438 L 441.597656 57.597656 L 422.398438 57.597656 Z M 422.398438 38.398438 "/>
<path style=" stroke:none;fill-rule:nonzero;fill:rgb(0%,0%,0%);fill-opacity:1;" d="M 460.800781 38.398438 L 480 38.398438 L 480 57.597656 L 460.800781 57.597656 Z M 460.800781 38.398438 "/>
<path style=" stroke:none;fill-rule:nonzero;fill:rgb(0%,0%,0%);fill-opacity:1;" d="M 0 57.601562 L 19.199219 57.601562 L 19.199219 76.800781 L 0 76.800781 Z M 0 57.601562 "/>
<path style=" stroke:none;fill-rule:nonzero;fill:rgb(0%,0%,0%);fill-opacity:1;" d="M 38.398438 57.601562 L 57.597656 57.601562 L 57.597656 76.800781 L 38.398438 76.800781 Z M 38.398438 57.601562 "/>
<path style=" stroke:none;fill-rule:nonzero;fill:rgb(0%,0%,0%);fill-opacity:1;" d="M 57.601562 57.601562 L 76.800781 57.601562 L 76.800781 76.800781 L 57.601562 76.800781 Z M 57.601562 57.601562 "/>
<path style=" stroke:none;fill-rule:nonzero;fill:rgb(0%,0%,0%);fill-opacity:1;" d="M 76.800781 57.601562 L 96 57.601562 L 96 76.800781 L 76.800781 76.800781 Z M 76.800781 57.601562 "/>
<path style=" stroke:none;fill-rule:nonzero;fill:rgb(0%,0%,0%);fill-opacity:1;" d="M 115.199219 57.601562 L 134.398438 57.601562 L 134.398438 76.800781 L 115.199219 76.800781 Z M 115.199219 57.601562 "/>
<path style=" stroke:none;fill-rule:nonzero;fill:rgb(0%,0%,0%);fill-opacity:1;" d="M 172.800781 57.601562 L 192 57.601562 L 192 76.800781 L 172.800781 76.800781 Z M 172.800781 57.601562 "/>
<path style=" stroke:none;fill-rule:nonzero;fill:rgb(0%,0%,0%);fill-opacity:1;" d="M 230.398438 57.601562 L 249.597656 57.601562 L 249.597656 76.800781 L 230.398438 76.800781 Z M 230.398438 57.601562 "/>
<path style=" stroke:none;fill-rule:nonzero;fill:rgb(0%,0%,0%);fill-opacity:1;" d="M 249.601562 57.601562 L 268.800781 57.601562 L 268.800781 76.800781 L 249.601562 76.800781 Z M 249.601562 57.601562 "/>
<path style=" stroke:none;fill-rule:nonzero;fill:rgb(0%,0%,0%);fill-opacity:1;" d="M 288 57.601562 L 307.199219 57.601562 L 307.199219 76.800781 L 288 76.800781 Z M 288 57.601562 "/>
<path style=" stroke:none;fill-rule:nonzero;fill:rgb(0%,0%,0%);fill-opacity:1;" d="M 345.601562 57.601562 L 364.800781 57.601562 L 364.800781 76.800781 L 345.601562 76.800781 Z M 345.601562 57.601562 "/>
<path style=" stroke:none;fill-rule:nonzero;fill:rgb(0%,0%,0%);fill-opacity:1;" d="M 384 57.601562 L 403.199219 57.601562 L 403.199219 76.800781 L 384 76.800781 Z M 384 57.601562 "/>
<path style=" stroke:none;fill-rule:nonzero;fill:rgb(0%,0%,0%);fill-opacity:1;" d="M 403.199219 57.601562 L 422.398438 57.601562 L 422.398438 76.800781 L 403.199219 76.800781 Z M 403.199219 57.601562 "/>
<path style=" stroke:none;fill-rule:nonzero;fill:rgb(0%,0%,0%);fill-opacity:1;" d="M 422.398438 57.601562 L 441.597656 57.601562 L 441.597656 76.800781 L 422.398438 76.800781 Z M 422.398438 57.601562 "/>
<path style=" stroke:none;fill-rule:nonzero;fill:rgb(0%,0%,0%);fill-opacity:1;" d="M 460.800781 57.601562 L 480 57.601562 L 480 76.800781 L 460.800781 76.800781 Z M 460.800781 57.601562 "/>
<path style=" stroke:none;fill-rule:nonzero;fill:rgb(0%,0%,0%);fill-opacity:1;" d="M 0 76.800781 L 19.199219 76.800781 L 19.199219 96 L 0 96 Z M 0 76.800781 "/>
<path style=" stroke:none;fill-rule:nonzero;fill:rgb(0%,0%,0%);fill-opacity:1;" d="M 38.398438 76.800781 L 57.597656 76.800781 L 57.597656 96 L 38.398438 96 Z M 38.398438 76.800781 "/>
<path style=" stroke:none;fill-rule:nonzero;fill:rgb(0%,0%,0%);fill-opacity:1;" d="M 57.601562 76.800781 L 76.800781 76.800781 L 76.800781 96 L 57.601562 96 Z M 57.601562 76.800781 "/>
<path style=" stroke:none;fill-rule:nonzero;fill:rgb(0%,0%,0%);fill-opacity:1;" d="M 76.800781 76.800781 L 96 76.800781 L 96 96 L 76.800781 96 Z M 76.800781 76.800781 "/>
<path style=" stroke:none;fill-rule:nonzero;fill:rgb(0%,0%,0%);fill-opacity:1;" d="M 115.199219 76.800781 L 134.398438 76.800781 L 134.398438 96 L 115.199219 96 Z M 115.199219 76.800781 "/>
<path style=" stroke:none;fill-rule:nonzero;fill:rgb(0%,0%,0%);fill-opacity:1;" d="M 172.800781 76.800781 L 192 76.800781 L 192 96 L 172.800781 96 Z M 172.800781 76.800781 "/>
<path style=" stroke:none;fill-rule:nonzero;fill:rgb(0%,0%,0%);fill-opacity:1;" d="M 230.398438 76.800781 L 249.597656 76.800781 L 249.597656 96 L 230.398438 96 Z M 230.398438 76.800781 "/>
<path style=" stroke:none;fill-rule:nonzero;fill:rgb(0%,0%,0%);fill-opacity:1;" d="M 249.601562 76.800781 L 268.800781 76.800781 L 268.800781 96 L 249.601562 96 Z M 249.601562 76.800781 "/>
<path style=" stroke:none;fill-rule:nonzero;fill:rgb(0%,0%,0%);fill-opacity:1;" d="M 268.800781 76.800781 L 288 76.800781 L 288 96 L 268.800781 96 Z M 268.800781 76.800781 "/>
<path style=" stroke:none;fill-rule:nonzero;fill:rgb(0%,0%,0%);fill-opacity:1;" d="M 288 76.800781 L 307.199219 76.800781 L 307.199219 96 L 288 96 Z M 288 76.800781 "/>
<path style=" stroke:none;fill-rule:nonzero;fill:rgb(0%,0%,0%);fill-opacity:1;" d="M 345.601562 76.800781 L 364.800781 76.800781 L 364.800781 96 L 345.601562 96 Z M 345.601562 76.800781 "/>
<path style=" stroke:none;fill-rule:nonzero;fill:rgb(0%,0%,0%);fill-opacity:1;" d="M 384 76.800781 L 403.199219 76.800781 L 403.199219 96 L 384 96 Z M 384 76.800781 "/>
<path style=" stroke:none;fill-rule:nonzero;fill:rgb(0%,0%,0%);fill-opacity:1;" d="M 403.199219 76.800781 L 422.398438 76.800781 L 422.398438 96 L 403.199219 96 Z M 403.199219 76.800781 "/>
<path style=" stroke:none;fill-rule:nonzero;fill:rgb(0%,0%,0%);fill-opacity:1;" d="M 422.398438 76.800781 L 441.597656 76.800781 L 441.597656 96 L 422.398438 96 Z M 422.398438 76.800781 "/>
<path style=" stroke:none;fill-rule:nonzero;fill:rgb(0%,0%,0%);fill-opacity:1;" d="M 460.800781 76.800781 L 480 76.800781 L 480 96 L 460.800781 96 Z M 460.800781 76.800781 "/>
<path style=" stroke:none;fill-rule:nonzero;fill:rgb(0%,0%,0%);fill-opacity:1;" d="M 0 96 L 19.199219 96 L 19.199219 115.199219 L 0 115.199219 Z M 0 96 "/>
<path style=" stroke:none;fill-rule:nonzero;fill:rgb(0%,0%,0%);fill-opacity:1;" d="M 115.199219 96 L 134.398438 96 L 134.398438 115.199219 L 115.199219 115.199219 Z M 115.199219 96 "/>
<path style=" stroke:none;fill-rule:nonzero;fill:rgb(0%,0%,0%);fill-opacity:1;" d="M 192 96 L 211.199219 96 L 211.199219 115.199219 L 192 115.199219 Z M 192 96 "/>
<path style=" stroke:none;fill-rule:nonzero;fill:rgb(0%,0%,0%);fill-opacity:1;" d="M 211.199219 96 L 230.398438 96 L 230.398438 115.199219 L 211.199219 115.199219 Z M 211.199219 96 "/>
<path style=" stroke:none;fill-rule:nonzero;fill:rgb(0%,0%,0%);fill-opacity:1;" d="M 230.398438 96 L 249.597656 96 L 249.597656 115.199219 L 230.398438 115.199219 Z M 230.398438 96 "/>
<path style=" stroke:none;fill-rule:nonzero;fill:rgb(0%,0%,0%);fill-opacity:1;" d="M 268.800781 96 L 288 96 L 288 115.199219 L 268.800781 115.199219 Z M 268.800781 96 "/>
<path style=" stroke:none;fill-rule:nonzero;fill:rgb(0%,0%,0%);fill-opacity:1;" d="M 288 96 L 307.199219 96 L 307.199219 115.199219 L 288 115.199219 Z M 288 96 "/>
<path style=" stroke:none;fill-rule:nonzero;fill:rgb(0%,0%,0%);fill-opacity:1;" d="M 345.601562 96 L 364.800781 96 L 364.800781 115.199219 L 345.601562 115.199219 Z M 345.601562 96 "/>
<path style=" stroke:none;fill-rule:nonzero;fill:rgb(0%,0%,0%);fill-opacity:1;" d="M 460.800781 96 L 480 96 L 480 115.199219 L 460.800781 115.199219 Z M 460.800781 96 "/>
<path style=" stroke:none;fill-rule:nonzero;fill:rgb(0%,0%,0%);fill-opacity:1;" d="M 0 115.199219 L 19.199219 115.199219 L 19.199219 134.398438 L 0 134.398438 Z M 0 115.199219 "/>
<path style=" stroke:none;fill-rule:nonzero;fill:rgb(0%,0%,0%);fill-opacity:1;" d="M 19.199219 115.199219 L 38.398438 115.199219 L 38.398438 134.398438 L 19.199219 134.398438 Z M 19.199219 115.199219 "/>
<path style=" stroke:none;fill-rule:nonzero;fill:rgb(0%,0%,0%);fill-opacity:1;" d="M 38.398438 115.199219 L 57.597656 115.199219 L 57.597656 134.398438 L 38.398438 134.398438 Z M 38.398438 115.199219 "/>
<path style=" stroke:none;fill-rule:nonzero;fill:rgb(0%,0%,0%);fill-opacity:1;" d="M 57.601562 115.199219 L 76.800781 115.199219 L 76.800781 134.398438 L 57.601562 134.398438 Z M 57.601562 115.199219 "/>
<path style=" stroke:none;fill-rule:nonzero;fill:rgb(0%,0%,0%);fill-opacity:1;" d="M 76.800781 115.199219 L 96 115.199219 L 96 134.398438 L 76.800781 134.398438 Z M 76.800781 115.199219 "/>
<path style=" stroke:none;fill-rule:nonzero;fill:rgb(0%,0%,0%);fill-opacity:1;" d="M 96 115.199219 L 115.199219 115.199219 L 115.199219 134.398438 L 96 134.398438 Z M 96 115.199219 "/>
<path style=" stroke:none;fill-rule:nonzero;fill:rgb(0%,0%,0%);fill-opacity:1;" d="M 115.199219 115.199219 L 134.398438 115.199219 L 134.398438 134.398438 L 115.199219 134.398438 Z M 115.199219 115.199219 "/>
<path style=" stroke:none;fill-rule:nonzero;fill:rgb(0%,0%,0%);fill-opacity:1;" d="M 153.601562 115.199219 L 172.800781 115.199219 L 172.800781 134.398438 L 153.601562 134.398438 Z M 153.601562 115.199219 "/>
<path style=" stroke:none;fill-rule:nonzero;fill:rgb(0%,0%,0%);fill-opacity:1;" d="M 192 115.199219 L 211.199219 115.199219 L 211.199219 134.398438 L 192 134.398438 Z M 192 115.199219 "/>
<path style=" stroke:none;fill-rule:nonzero;fill:rgb(0%,0%,0%);fill-opacity:1;" d="M 230.398438 115.199219 L 249.597656 115.199219 L 249.597656 134.398438 L 230.398438 134.398438 Z M 230.398438 115.199219 "/>
<path style=" stroke:none;fill-rule:nonzero;fill:rgb(0%,0%,0%);fill-opacity:1;" d="M 268.800781 115.199219 L 288 115.199219 L 288 134.398438 L 268.800781 134.398438 Z M 268.800781 115.199219 "/>
<path style=" stroke:none;fill-rule:nonzero;fill:rgb(0%,0%,0%);fill-opacity:1;" d="M 307.199219 115.199219 L 326.398438 115.199219 L 326.398438 134.398438 L 307.199219 134.398438 Z M 307.199219 115.199219 "/>
<path style=" stroke:none;fill-rule:nonzero;fill:rgb(0%,0%,0%);fill-opacity:1;" d="M 345.601562 115.199219 L 364.800781 115.199219 L 364.800781 134.398438 L 345.601562 134.398438 Z M 345.601562 115.199219 "/>
<path style=" stroke:none;fill-rule:nonzero;fill:rgb(0%,0%,0%);fill-opacity:1;" d="M 364.800781 115.199219 L 384 115.199219 L 384 134.398438 L 364.800781 134.398438 Z M 364.800781 115.199219 "/>
<path style=" stroke:none;fill-rule:nonzero;fill:rgb(0%,0%,0%);fill-opacity:1;" d="M 384 115.199219 L 403.199219 115.199219 L 403.199219 134.398438 L 384 134.398438 Z M 384 115.199219 "/>
<path style=" stroke:none;fill-rule:nonzero;fill:rgb(0%,0%,0%);fill-opacity:1;" d="M 403.199219 115.199219 L 422.398438 115.199219 L 422.398438 134.398438 L 403.199219 134.398438 Z M 403.199219 115.199219 "/>
<path style=" stroke:none;fill-rule:nonzero;fill:rgb(0%,0%,0%);fill-opacity:1;" d="M 422.398438 115.199219 L 441.597656 115.199219 L 441.597656 134.398438 L 422.398438 134.398438 Z M 422.398438 115.199219 "/>
<path style=" stroke:none;fill-rule:nonzero;fill:rgb(0%,0%,0%);fill-opacity:1;" d="M 441.601562 115.199219 L 460.800781 115.199219 L 460.800781 134.398438 L 441.601562 134.398438 Z M 441.601562 115.199219 "/>
<path style=" stroke:none;fill-rule:nonzero;fill:rgb(0%,0%,0%);fill-opacity:1;" d="M 460.800781 115.199219 L 480 115.199219 L 480 134.398438 L 460.800781 134.398438 Z M 460.800781 115.199219 "/>
<path style=" stroke:none;fill-rule:nonzero;fill:rgb(0%,0%,0%);fill-opacity:1;" d="M 153.601562 134.398438 L 172.800781 134.398438 L 172.800781 153.597656 L 153.601562 153.597656 Z M 153.601562 134.398438 "/>
<path style=" stroke:none;fill-rule:nonzero;fill:rgb(0%,0%,0%);fill-opacity:1;" d="M 211.199219 134.398438 L 230.398438 134.398438 L 230.398438 153.597656 L 211.199219 153.597656 Z M 211.199219 134.398438 "/>
<path style=" stroke:none;fill-rule:nonzero;fill:rgb(0%,0%,0%);fill-opacity:1;" d="M 307.199219 134.398438 L 326.398438 134.398438 L 326.398438 153.597656 L 307.199219 153.597656 Z M 307.199219 134.398438 "/>
<path style=" stroke:none;fill-rule:nonzero;fill:rgb(0%,0%,0%);fill-opacity:1;" d="M 0 153.601562 L 19.199219 153.601562 L 19.199219 172.800781 L 0 172.800781 Z M 0 153.601562 "/>
<path style=" stroke:none;fill-rule:nonzero;fill:rgb(0%,0%,0%);fill-opacity:1;" d="M 19.199219 153.601562 L 38.398438 153.601562 L 38.398438 172.800781 L 19.199219 172.800781 Z M 19.199219 153.601562 "/>
<path style=" stroke:none;fill-rule:nonzero;fill:rgb(0%,0%,0%);fill-opacity:1;" d="M 38.398438 153.601562 L 57.597656 153.601562 L 57.597656 172.800781 L 38.398438 172.800781 Z M 38.398438 153.601562 "/>
<path style=" stroke:none;fill-rule:nonzero;fill:rgb(0%,0%,0%);fill-opacity:1;" d="M 76.800781 153.601562 L 96 153.601562 L 96 172.800781 L 76.800781 172.800781 Z M 76.800781 153.601562 "/>
<path style=" stroke:none;fill-rule:nonzero;fill:rgb(0%,0%,0%);fill-opacity:1;" d="M 96 153.601562 L 115.199219 153.601562 L 115.199219 172.800781 L 96 172.800781 Z M 96 153.601562 "/>
<path style=" stroke:none;fill-rule:nonzero;fill:rgb(0%,0%,0%);fill-opacity:1;" d="M 115.199219 153.601562 L 134.398438 153.601562 L 134.398438 172.800781 L 115.199219 172.800781 Z M 115.199219 153.601562 "/>
<path style=" stroke:none;fill-rule:nonzero;fill:rgb(0%,0%,0%);fill-opacity:1;" d="M 134.398438 153.601562 L 153.597656 153.601562 L 153.597656 172.800781 L 134.398438 172.800781 Z M 134.398438 153.601562 "/>
<path style=" stroke:none;fill-rule:nonzero;fill:rgb(0%,0%,0%);fill-opacity:1;" d="M 153.601562 153.601562 L 172.800781 153.601562 L 172.800781 172.800781 L 153.601562 172.800781 Z M 153.601562 153.601562 "/>
<path style=" stroke:none;fill-rule:nonzero;fill:rgb(0%,0%,0%);fill-opacity:1;" d="M 230.398438 153.601562 L 249.597656 153.601562 L 249.597656 172.800781 L 230.398438 172.800781 Z M 230.398438 153.601562 "/>
<path style=" stroke:none;fill-rule:nonzero;fill:rgb(0%,0%,0%);fill-opacity:1;" d="M 288 153.601562 L 307.199219 153.601562 L 307.199219 172.800781 L 288 172.800781 Z M 288 153.601562 "/>
<path style=" stroke:none;fill-rule:nonzero;fill:rgb(0%,0%,0%);fill-opacity:1;" d="M 307.199219 153.601562 L 326.398438 153.601562 L 326.398438 172.800781 L 307.199219 172.800781 Z M 307.199219 153.601562 "/>
<path style=" stroke:none;fill-rule:nonzero;fill:rgb(0%,0%,0%);fill-opacity:1;" d="M 326.398438 153.601562 L 345.597656 153.601562 L 345.597656 172.800781 L 326.398438 172.800781 Z M 326.398438 153.601562 "/>
<path style=" stroke:none;fill-rule:nonzero;fill:rgb(0%,0%,0%);fill-opacity:1;" d="M 345.601562 153.601562 L 364.800781 153.601562 L 364.800781 172.800781 L 345.601562 172.800781 Z M 345.601562 153.601562 "/>
<path style=" stroke:none;fill-rule:nonzero;fill:rgb(0%,0%,0%);fill-opacity:1;" d="M 422.398438 153.601562 L 441.597656 153.601562 L 441.597656 172.800781 L 422.398438 172.800781 Z M 422.398438 153.601562 "/>
<path style=" stroke:none;fill-rule:nonzero;fill:rgb(0%,0%,0%);fill-opacity:1;" d="M 19.199219 172.800781 L 38.398438 172.800781 L 38.398438 192 L 19.199219 192 Z M 19.199219 172.800781 "/>
<path style=" stroke:none;fill-rule:nonzero;fill:rgb(0%,0%,0%);fill-opacity:1;" d="M 38.398438 172.800781 L 57.597656 172.800781 L 57.597656 192 L 38.398438 192 Z M 38.398438 172.800781 "/>
<path style=" stroke:none;fill-rule:nonzero;fill:rgb(0%,0%,0%);fill-opacity:1;" d="M 57.601562 172.800781 L 76.800781 172.800781 L 76.800781 192 L 57.601562 192 Z M 57.601562 172.800781 "/>
<path style=" stroke:none;fill-rule:nonzero;fill:rgb(0%,0%,0%);fill-opacity:1;" d="M 134.398438 172.800781 L 153.597656 172.800781 L 153.597656 192 L 134.398438 192 Z M 134.398438 172.800781 "/>
<path style=" stroke:none;fill-rule:nonzero;fill:rgb(0%,0%,0%);fill-opacity:1;" d="M 172.800781 172.800781 L 192 172.800781 L 192 192 L 172.800781 192 Z M 172.800781 172.800781 "/>
<path style=" stroke:none;fill-rule:nonzero;fill:rgb(0%,0%,0%);fill-opacity:1;" d="M 211.199219 172.800781 L 230.398438 172.800781 L 230.398438 192 L 211.199219 192 Z M 211.199219 172.800781 "/>
<path style=" stroke:none;fill-rule:nonzero;fill:rgb(0%,0%,0%);fill-opacity:1;" d="M 230.398438 172.800781 L 249.597656 172.800781 L 249.597656 192 L 230.398438 192 Z M 230.398438 172.800781 "/>
<path style=" stroke:none;fill-rule:nonzero;fill:rgb(0%,0%,0%);fill-opacity:1;" d="M 249.601562 172.800781 L 268.800781 172.800781 L 268.800781 192 L 249.601562 192 Z M 249.601562 172.800781 "/>
<path style=" stroke:none;fill-rule:nonzero;fill:rgb(0%,0%,0%);fill-opacity:1;" d="M 326.398438 172.800781 L 345.597656 172.800781 L 345.597656 192 L 326.398438 192 Z M 326.398438 172.800781 "/>
<path style=" stroke:none;fill-rule:nonzero;fill:rgb(0%,0%,0%);fill-opacity:1;" d="M 345.601562 172.800781 L 364.800781 172.800781 L 364.800781 192 L 345.601562 192 Z M 345.601562 172.800781 "/>
<path style=" stroke:none;fill-rule:nonzero;fill:rgb(0%,0%,0%);fill-opacity:1;" d="M 460.800781 172.800781 L 480 172.800781 L 480 192 L 460.800781 192 Z M 460.800781 172.800781 "/>
<path style=" stroke:none;fill-rule:nonzero;fill:rgb(0%,0%,0%);fill-opacity:1;" d="M 19.199219 192 L 38.398438 192 L 38.398438 211.199219 L 19.199219 211.199219 Z M 19.199219 192 "/>
<path style=" stroke:none;fill-rule:nonzero;fill:rgb(0%,0%,0%);fill-opacity:1;" d="M 38.398438 192 L 57.597656 192 L 57.597656 211.199219 L 38.398438 211.199219 Z M 38.398438 192 "/>
<path style=" stroke:none;fill-rule:nonzero;fill:rgb(0%,0%,0%);fill-opacity:1;" d="M 57.601562 192 L 76.800781 192 L 76.800781 211.199219 L 57.601562 211.199219 Z M 57.601562 192 "/>
<path style=" stroke:none;fill-rule:nonzero;fill:rgb(0%,0%,0%);fill-opacity:1;" d="M 96 192 L 115.199219 192 L 115.199219 211.199219 L 96 211.199219 Z M 96 192 "/>
<path style=" stroke:none;fill-rule:nonzero;fill:rgb(0%,0%,0%);fill-opacity:1;" d="M 115.199219 192 L 134.398438 192 L 134.398438 211.199219 L 115.199219 211.199219 Z M 115.199219 192 "/>
<path style=" stroke:none;fill-rule:nonzero;fill:rgb(0%,0%,0%);fill-opacity:1;" d="M 192 192 L 211.199219 192 L 211.199219 211.199219 L 192 211.199219 Z M 192 192 "/>
<path style=" stroke:none;fill-rule:nonzero;fill:rgb(0%,0%,0%);fill-opacity:1;" d="M 211.199219 192 L 230.398438 192 L 230.398438 211.199219 L 211.199219 211.199219 Z M 211.199219 192 "/>
<path style=" stroke:none;fill-rule:nonzero;fill:rgb(0%,0%,0%);fill-opacity:1;" d="M 230.398438 192 L 249.597656 192 L 249.597656 211.199219 L 230.398438 211.199219 Z M 230.398438 192 "/>
<path style=" stroke:none;fill-rule:nonzero;fill:rgb(0%,0%,0%);fill-opacity:1;" d="M 268.800781 192 L 288 192 L 288 211.199219 L 268.800781 211.199219 Z M 268.800781 192 "/>
<path style=" stroke:none;fill-rule:nonzero;fill:rgb(0%,0%,0%);fill-opacity:1;" d="M 326.398438 192 L 345.597656 192 L 345.597656 211.199219 L 326.398438 211.199219 Z M 326.398438 192 "/>
<path style=" stroke:none;fill-rule:nonzero;fill:rgb(0%,0%,0%);fill-opacity:1;" d="M 364.800781 192 L 384 192 L 384 211.199219 L 364.800781 211.199219 Z M 364.800781 192 "/>
<path style=" stroke:none;fill-rule:nonzero;fill:rgb(0%,0%,0%);fill-opacity:1;" d="M 422.398438 192 L 441.597656 192 L 441.597656 211.199219 L 422.398438 211.199219 Z M 422.398438 192 "/>
<path style=" stroke:none;fill-rule:nonzero;fill:rgb(0%,0%,0%);fill-opacity:1;" d="M 441.601562 192 L 460.800781 192 L 460.800781 211.199219 L 441.601562 211.199219 Z M 441.601562 192 "/>
<path style=" stroke:none;fill-rule:nonzero;fill:rgb(0%,0%,0%);fill-opacity:1;" d="M 460.800781 192 L 480 192 L 480 211.199219 L 460.800781 211.199219 Z M 460.800781 192 "/>
<path style=" stroke:none;fill-rule:nonzero;fill:rgb(0%,0%,0%);fill-opacity:1;" d="M 0 211.199219 L 19.199219 211.199219 L 19.199219 230.398438 L 0 230.398438 Z M 0 211.199219 "/>
<path style=" stroke:none;fill-rule:nonzero;fill:rgb(0%,0%,0%);fill-opacity:1;" d="M 19.199219 211.199219 L 38.398438 211.199219 L 38.398438 230.398438 L 19.199219 230.398438 Z M 19.199219 211.199219 "/>
<path style=" stroke:none;fill-rule:nonzero;fill:rgb(0%,0%,0%);fill-opacity:1;" d="M 57.601562 211.199219 L 76.800781 211.199219 L 76.800781 230.398438 L 57.601562 230.398438 Z M 57.601562 211.199219 "/>
<path style=" stroke:none;fill-rule:nonzero;fill:rgb(0%,0%,0%);fill-opacity:1;" d="M 96 211.199219 L 115.199219 211.199219 L 115.199219 230.398438 L 96 230.398438 Z M 96 211.199219 "/>
<path style=" stroke:none;fill-rule:nonzero;fill:rgb(0%,0%,0%);fill-opacity:1;" d="M 134.398438 211.199219 L 153.597656 211.199219 L 153.597656 230.398438 L 134.398438 230.398438 Z M 134.398438 211.199219 "/>
<path style=" stroke:none;fill-rule:nonzero;fill:rgb(0%,0%,0%);fill-opacity:1;" d="M 172.800781 211.199219 L 192 211.199219 L 192 230.398438 L 172.800781 230.398438 Z M 172.800781 211.199219 "/>
<path style=" stroke:none;fill-rule:nonzero;fill:rgb(0%,0%,0%);fill-opacity:1;" d="M 192 211.199219 L 211.199219 211.199219 L 211.199219 230.398438 L 192 230.398438 Z M 192 211.199219 "/>
<path style=" stroke:none;fill-rule:nonzero;fill:rgb(0%,0%,0%);fill-opacity:1;" d="M 230.398438 211.199219 L 249.597656 211.199219 L 249.597656 230.398438 L 230.398438 230.398438 Z M 230.398438 211.199219 "/>
<path style=" stroke:none;fill-rule:nonzero;fill:rgb(0%,0%,0%);fill-opacity:1;" d="M 249.601562 211.199219 L 268.800781 211.199219 L 268.800781 230.398438 L 249.601562 230.398438 Z M 249.601562 211.199219 "/>
<path style=" stroke:none;fill-rule:nonzero;fill:rgb(0%,0%,0%);fill-opacity:1;" d="M 268.800781 211.199219 L 288 211.199219 L 288 230.398438 L 268.800781 230.398438 Z M 268.800781 211.199219 "/>
<path style=" stroke:none;fill-rule:nonzero;fill:rgb(0%,0%,0%);fill-opacity:1;" d="M 326.398438 211.199219 L 345.597656 211.199219 L 345.597656 230.398438 L 326.398438 230.398438 Z M 326.398438 211.199219 "/>
<path style=" stroke:none;fill-rule:nonzero;fill:rgb(0%,0%,0%);fill-opacity:1;" d="M 345.601562 211.199219 L 364.800781 211.199219 L 364.800781 230.398438 L 345.601562 230.398438 Z M 345.601562 211.199219 "/>
<path style=" stroke:none;fill-rule:nonzero;fill:rgb(0%,0%,0%);fill-opacity:1;" d="M 384 211.199219 L 403.199219 211.199219 L 403.199219 230.398438 L 384 230.398438 Z M 384 211.199219 "/>
<path style=" stroke:none;fill-rule:nonzero;fill:rgb(0%,0%,0%);fill-opacity:1;" d="M 441.601562 211.199219 L 460.800781 211.199219 L 460.800781 230.398438 L 441.601562 230.398438 Z M 441.601562 211.199219 "/>
<path style=" stroke:none;fill-rule:nonzero;fill:rgb(0%,0%,0%);fill-opacity:1;" d="M 38.398438 230.398438 L 57.597656 230.398438 L 57.597656 249.597656 L 38.398438 249.597656 Z M 38.398438 230.398438 "/>
<path style=" stroke:none;fill-rule:nonzero;fill:rgb(0%,0%,0%);fill-opacity:1;" d="M 57.601562 230.398438 L 76.800781 230.398438 L 76.800781 249.597656 L 57.601562 249.597656 Z M 57.601562 230.398438 "/>
<path style=" stroke:none;fill-rule:nonzero;fill:rgb(0%,0%,0%);fill-opacity:1;" d="M 76.800781 230.398438 L 96 230.398438 L 96 249.597656 L 76.800781 249.597656 Z M 76.800781 230.398438 "/>
<path style=" stroke:none;fill-rule:nonzero;fill:rgb(0%,0%,0%);fill-opacity:1;" d="M 96 230.398438 L 115.199219 230.398438 L 115.199219 249.597656 L 96 249.597656 Z M 96 230.398438 "/>
<path style=" stroke:none;fill-rule:nonzero;fill:rgb(0%,0%,0%);fill-opacity:1;" d="M 115.199219 230.398438 L 134.398438 230.398438 L 134.398438 249.597656 L 115.199219 249.597656 Z M 115.199219 230.398438 "/>
<path style=" stroke:none;fill-rule:nonzero;fill:rgb(0%,0%,0%);fill-opacity:1;" d="M 134.398438 230.398438 L 153.597656 230.398438 L 153.597656 249.597656 L 134.398438 249.597656 Z M 134.398438 230.398438 "/>
<path style=" stroke:none;fill-rule:nonzero;fill:rgb(0%,0%,0%);fill-opacity:1;" d="M 192 230.398438 L 211.199219 230.398438 L 211.199219 249.597656 L 192 249.597656 Z M 192 230.398438 "/>
<path style=" stroke:none;fill-rule:nonzero;fill:rgb(0%,0%,0%);fill-opacity:1;" d="M 211.199219 230.398438 L 230.398438 230.398438 L 230.398438 249.597656 L 211.199219 249.597656 Z M 211.199219 230.398438 "/>
<path style=" stroke:none;fill-rule:nonzero;fill:rgb(0%,0%,0%);fill-opacity:1;" d="M 268.800781 230.398438 L 288 230.398438 L 288 249.597656 L 268.800781 249.597656 Z M 268.800781 230.398438 "/>
<path style=" stroke:none;fill-rule:nonzero;fill:rgb(0%,0%,0%);fill-opacity:1;" d="M 288 230.398438 L 307.199219 230.398438 L 307.199219 249.597656 L 288 249.597656 Z M 288 230.398438 "/>
<path style=" stroke:none;fill-rule:nonzero;fill:rgb(0%,0%,0%);fill-opacity:1;" d="M 307.199219 230.398438 L 326.398438 230.398438 L 326.398438 249.597656 L 307.199219 249.597656 Z M 307.199219 230.398438 "/>
<path style=" stroke:none;fill-rule:nonzero;fill:rgb(0%,0%,0%);fill-opacity:1;" d="M 326.398438 230.398438 L 345.597656 230.398438 L 345.597656 249.597656 L 326.398438 249.597656 Z M 326.398438 230.398438 "/>
<path style=" stroke:none;fill-rule:nonzero;fill:rgb(0%,0%,0%);fill-opacity:1;" d="M 345.601562 230.398438 L 364.800781 230.398438 L 364.800781 249.597656 L 345.601562 249.597656 Z M 345.601562 230.398438 "/>
<path style=" stroke:none;fill-rule:nonzero;fill:rgb(0%,0%,0%);fill-opacity:1;" d="M 403.199219 230.398438 L 422.398438 230.398438 L 422.398438 249.597656 L 403.199219 249.597656 Z M 403.199219 230.398438 "/>
<path style=" stroke:none;fill-rule:nonzero;fill:rgb(0%,0%,0%);fill-opacity:1;" d="M 441.601562 230.398438 L 460.800781 230.398438 L 460.800781 249.597656 L 441.601562 249.597656 Z M 441.601562 230.398438 "/>
<path style=" stroke:none;fill-rule:nonzero;fill:rgb(0%,0%,0%);fill-opacity:1;" d="M 460.800781 230.398438 L 480 230.398438 L 480 249.597656 L 460.800781 249.597656 Z M 460.800781 230.398438 "/>
<path style=" stroke:none;fill-rule:nonzero;fill:rgb(0%,0%,0%);fill-opacity:1;" d="M 19.199219 249.601562 L 38.398438 249.601562 L 38.398438 268.800781 L 19.199219 268.800781 Z M 19.199219 249.601562 "/>
<path style=" stroke:none;fill-rule:nonzero;fill:rgb(0%,0%,0%);fill-opacity:1;" d="M 57.601562 249.601562 L 76.800781 249.601562 L 76.800781 268.800781 L 57.601562 268.800781 Z M 57.601562 249.601562 "/>
<path style=" stroke:none;fill-rule:nonzero;fill:rgb(0%,0%,0%);fill-opacity:1;" d="M 96 249.601562 L 115.199219 249.601562 L 115.199219 268.800781 L 96 268.800781 Z M 96 249.601562 "/>
<path style=" stroke:none;fill-rule:nonzero;fill:rgb(0%,0%,0%);fill-opacity:1;" d="M 172.800781 249.601562 L 192 249.601562 L 192 268.800781 L 172.800781 268.800781 Z M 172.800781 249.601562 "/>
<path style=" stroke:none;fill-rule:nonzero;fill:rgb(0%,0%,0%);fill-opacity:1;" d="M 192 249.601562 L 211.199219 249.601562 L 211.199219 268.800781 L 192 268.800781 Z M 192 249.601562 "/>
<path style=" stroke:none;fill-rule:nonzero;fill:rgb(0%,0%,0%);fill-opacity:1;" d="M 211.199219 249.601562 L 230.398438 249.601562 L 230.398438 268.800781 L 211.199219 268.800781 Z M 211.199219 249.601562 "/>
<path style=" stroke:none;fill-rule:nonzero;fill:rgb(0%,0%,0%);fill-opacity:1;" d="M 268.800781 249.601562 L 288 249.601562 L 288 268.800781 L 268.800781 268.800781 Z M 268.800781 249.601562 "/>
<path style=" stroke:none;fill-rule:nonzero;fill:rgb(0%,0%,0%);fill-opacity:1;" d="M 307.199219 249.601562 L 326.398438 249.601562 L 326.398438 268.800781 L 307.199219 268.800781 Z M 307.199219 249.601562 "/>
<path style=" stroke:none;fill-rule:nonzero;fill:rgb(0%,0%,0%);fill-opacity:1;" d="M 326.398438 249.601562 L 345.597656 249.601562 L 345.597656 268.800781 L 326.398438 268.800781 Z M 326.398438 249.601562 "/>
<path style=" stroke:none;fill-rule:nonzero;fill:rgb(0%,0%,0%);fill-opacity:1;" d="M 345.601562 249.601562 L 364.800781 249.601562 L 364.800781 268.800781 L 345.601562 268.800781 Z M 345.601562 249.601562 "/>
<path style=" stroke:none;fill-rule:nonzero;fill:rgb(0%,0%,0%);fill-opacity:1;" d="M 403.199219 249.601562 L 422.398438 249.601562 L 422.398438 268.800781 L 403.199219 268.800781 Z M 403.199219 249.601562 "/>
<path style=" stroke:none;fill-rule:nonzero;fill:rgb(0%,0%,0%);fill-opacity:1;" d="M 460.800781 249.601562 L 480 249.601562 L 480 268.800781 L 460.800781 268.800781 Z M 460.800781 249.601562 "/>
<path style=" stroke:none;fill-rule:nonzero;fill:rgb(0%,0%,0%);fill-opacity:1;" d="M 0 268.800781 L 19.199219 268.800781 L 19.199219 288 L 0 288 Z M 0 268.800781 "/>
<path style=" stroke:none;fill-rule:nonzero;fill:rgb(0%,0%,0%);fill-opacity:1;" d="M 76.800781 268.800781 L 96 268.800781 L 96 288 L 76.800781 288 Z M 76.800781 268.800781 "/>
<path style=" stroke:none;fill-rule:nonzero;fill:rgb(0%,0%,0%);fill-opacity:1;" d="M 96 268.800781 L 115.199219 268.800781 L 115.199219 288 L 96 288 Z M 96 268.800781 "/>
<path style=" stroke:none;fill-rule:nonzero;fill:rgb(0%,0%,0%);fill-opacity:1;" d="M 115.199219 268.800781 L 134.398438 268.800781 L 134.398438 288 L 115.199219 288 Z M 115.199219 268.800781 "/>
<path style=" stroke:none;fill-rule:nonzero;fill:rgb(0%,0%,0%);fill-opacity:1;" d="M 134.398438 268.800781 L 153.597656 268.800781 L 153.597656 288 L 134.398438 288 Z M 134.398438 268.800781 "/>
<path style=" stroke:none;fill-rule:nonzero;fill:rgb(0%,0%,0%);fill-opacity:1;" d="M 153.601562 268.800781 L 172.800781 268.800781 L 172.800781 288 L 153.601562 288 Z M 153.601562 268.800781 "/>
<path style=" stroke:none;fill-rule:nonzero;fill:rgb(0%,0%,0%);fill-opacity:1;" d="M 249.601562 268.800781 L 268.800781 268.800781 L 268.800781 288 L 249.601562 288 Z M 249.601562 268.800781 "/>
<path style=" stroke:none;fill-rule:nonzero;fill:rgb(0%,0%,0%);fill-opacity:1;" d="M 326.398438 268.800781 L 345.597656 268.800781 L 345.597656 288 L 326.398438 288 Z M 326.398438 268.800781 "/>
<path style=" stroke:none;fill-rule:nonzero;fill:rgb(0%,0%,0%);fill-opacity:1;" d="M 364.800781 268.800781 L 384 268.800781 L 384 288 L 364.800781 288 Z M 364.800781 268.800781 "/>
<path style=" stroke:none;fill-rule:nonzero;fill:rgb(0%,0%,0%);fill-opacity:1;" d="M 384 268.800781 L 403.199219 268.800781 L 403.199219 288 L 384 288 Z M 384 268.800781 "/>
<path style=" stroke:none;fill-rule:nonzero;fill:rgb(0%,0%,0%);fill-opacity:1;" d="M 422.398438 268.800781 L 441.597656 268.800781 L 441.597656 288 L 422.398438 288 Z M 422.398438 268.800781 "/>
<path style=" stroke:none;fill-rule:nonzero;fill:rgb(0%,0%,0%);fill-opacity:1;" d="M 441.601562 268.800781 L 460.800781 268.800781 L 460.800781 288 L 441.601562 288 Z M 441.601562 268.800781 "/>
<path style=" stroke:none;fill-rule:nonzero;fill:rgb(0%,0%,0%);fill-opacity:1;" d="M 460.800781 268.800781 L 480 268.800781 L 480 288 L 460.800781 288 Z M 460.800781 268.800781 "/>
<path style=" stroke:none;fill-rule:nonzero;fill:rgb(0%,0%,0%);fill-opacity:1;" d="M 19.199219 288 L 38.398438 288 L 38.398438 307.199219 L 19.199219 307.199219 Z M 19.199219 288 "/>
<path style=" stroke:none;fill-rule:nonzero;fill:rgb(0%,0%,0%);fill-opacity:1;" d="M 57.601562 288 L 76.800781 288 L 76.800781 307.199219 L 57.601562 307.199219 Z M 57.601562 288 "/>
<path style=" stroke:none;fill-rule:nonzero;fill:rgb(0%,0%,0%);fill-opacity:1;" d="M 76.800781 288 L 96 288 L 96 307.199219 L 76.800781 307.199219 Z M 76.800781 288 "/>
<path style=" stroke:none;fill-rule:nonzero;fill:rgb(0%,0%,0%);fill-opacity:1;" d="M 96 288 L 115.199219 288 L 115.199219 307.199219 L 96 307.199219 Z M 96 288 "/>
<path style=" stroke:none;fill-rule:nonzero;fill:rgb(0%,0%,0%);fill-opacity:1;" d="M 153.601562 288 L 172.800781 288 L 172.800781 307.199219 L 153.601562 307.199219 Z M 153.601562 288 "/>
<path style=" stroke:none;fill-rule:nonzero;fill:rgb(0%,0%,0%);fill-opacity:1;" d="M 192 288 L 211.199219 288 L 211.199219 307.199219 L 192 307.199219 Z M 192 288 "/>
<path style=" stroke:none;fill-rule:nonzero;fill:rgb(0%,0%,0%);fill-opacity:1;" d="M 211.199219 288 L 230.398438 288 L 230.398438 307.199219 L 211.199219 307.199219 Z M 211.199219 288 "/>
<path style=" stroke:none;fill-rule:nonzero;fill:rgb(0%,0%,0%);fill-opacity:1;" d="M 288 288 L 307.199219 288 L 307.199219 307.199219 L 288 307.199219 Z M 288 288 "/>
<path style=" stroke:none;fill-rule:nonzero;fill:rgb(0%,0%,0%);fill-opacity:1;" d="M 307.199219 288 L 326.398438 288 L 326.398438 307.199219 L 307.199219 307.199219 Z M 307.199219 288 "/>
<path style=" stroke:none;fill-rule:nonzero;fill:rgb(0%,0%,0%);fill-opacity:1;" d="M 345.601562 288 L 364.800781 288 L 364.800781 307.199219 L 345.601562 307.199219 Z M 345.601562 288 "/>
<path style=" stroke:none;fill-rule:nonzero;fill:rgb(0%,0%,0%);fill-opacity:1;" d="M 384 288 L 403.199219 288 L 403.199219 307.199219 L 384 307.199219 Z M 384 288 "/>
<path style=" stroke:none;fill-rule:nonzero;fill:rgb(0%,0%,0%);fill-opacity:1;" d="M 403.199219 288 L 422.398438 288 L 422.398438 307.199219 L 403.199219 307.199219 Z M 403.199219 288 "/>
<path style=" stroke:none;fill-rule:nonzero;fill:rgb(0%,0%,0%);fill-opacity:1;" d="M 441.601562 288 L 460.800781 288 L 460.800781 307.199219 L 441.601562 307.199219 Z M 441.601562 288 "/>
<path style=" stroke:none;fill-rule:nonzero;fill:rgb(0%,0%,0%);fill-opacity:1;" d="M 0 307.199219 L 19.199219 307.199219 L 19.199219 326.398438 L 0 326.398438 Z M 0 307.199219 "/>
<path style=" stroke:none;fill-rule:nonzero;fill:rgb(0%,0%,0%);fill-opacity:1;" d="M 57.601562 307.199219 L 76.800781 307.199219 L 76.800781 326.398438 L 57.601562 326.398438 Z M 57.601562 307.199219 "/>
<path style=" stroke:none;fill-rule:nonzero;fill:rgb(0%,0%,0%);fill-opacity:1;" d="M 115.199219 307.199219 L 134.398438 307.199219 L 134.398438 326.398438 L 115.199219 326.398438 Z M 115.199219 307.199219 "/>
<path style=" stroke:none;fill-rule:nonzero;fill:rgb(0%,0%,0%);fill-opacity:1;" d="M 192 307.199219 L 211.199219 307.199219 L 211.199219 326.398438 L 192 326.398438 Z M 192 307.199219 "/>
<path style=" stroke:none;fill-rule:nonzero;fill:rgb(0%,0%,0%);fill-opacity:1;" d="M 230.398438 307.199219 L 249.597656 307.199219 L 249.597656 326.398438 L 230.398438 326.398438 Z M 230.398438 307.199219 "/>
<path style=" stroke:none;fill-rule:nonzero;fill:rgb(0%,0%,0%);fill-opacity:1;" d="M 307.199219 307.199219 L 326.398438 307.199219 L 326.398438 326.398438 L 307.199219 326.398438 Z M 307.199219 307.199219 "/>
<path style=" stroke:none;fill-rule:nonzero;fill:rgb(0%,0%,0%);fill-opacity:1;" d="M 326.398438 307.199219 L 345.597656 307.199219 L 345.597656 326.398438 L 326.398438 326.398438 Z M 326.398438 307.199219 "/>
<path style=" stroke:none;fill-rule:nonzero;fill:rgb(0%,0%,0%);fill-opacity:1;" d="M 345.601562 307.199219 L 364.800781 307.199219 L 364.800781 326.398438 L 345.601562 326.398438 Z M 345.601562 307.199219 "/>
<path style=" stroke:none;fill-rule:nonzero;fill:rgb(0%,0%,0%);fill-opacity:1;" d="M 364.800781 307.199219 L 384 307.199219 L 384 326.398438 L 364.800781 326.398438 Z M 364.800781 307.199219 "/>
<path style=" stroke:none;fill-rule:nonzero;fill:rgb(0%,0%,0%);fill-opacity:1;" d="M 384 307.199219 L 403.199219 307.199219 L 403.199219 326.398438 L 384 326.398438 Z M 384 307.199219 "/>
<path style=" stroke:none;fill-rule:nonzero;fill:rgb(0%,0%,0%);fill-opacity:1;" d="M 403.199219 307.199219 L 422.398438 307.199219 L 422.398438 326.398438 L 403.199219 326.398438 Z M 403.199219 307.199219 "/>
<path style=" stroke:none;fill-rule:nonzero;fill:rgb(0%,0%,0%);fill-opacity:1;" d="M 153.601562 326.398438 L 172.800781 326.398438 L 172.800781 345.597656 L 153.601562 345.597656 Z M 153.601562 326.398438 "/>
<path style=" stroke:none;fill-rule:nonzero;fill:rgb(0%,0%,0%);fill-opacity:1;" d="M 172.800781 326.398438 L 192 326.398438 L 192 345.597656 L 172.800781 345.597656 Z M 172.800781 326.398438 "/>
<path style=" stroke:none;fill-rule:nonzero;fill:rgb(0%,0%,0%);fill-opacity:1;" d="M 211.199219 326.398438 L 230.398438 326.398438 L 230.398438 345.597656 L 211.199219 345.597656 Z M 211.199219 326.398438 "/>
<path style=" stroke:none;fill-rule:nonzero;fill:rgb(0%,0%,0%);fill-opacity:1;" d="M 230.398438 326.398438 L 249.597656 326.398438 L 249.597656 345.597656 L 230.398438 345.597656 Z M 230.398438 326.398438 "/>
<path style=" stroke:none;fill-rule:nonzero;fill:rgb(0%,0%,0%);fill-opacity:1;" d="M 249.601562 326.398438 L 268.800781 326.398438 L 268.800781 345.597656 L 249.601562 345.597656 Z M 249.601562 326.398438 "/>
<path style=" stroke:none;fill-rule:nonzero;fill:rgb(0%,0%,0%);fill-opacity:1;" d="M 288 326.398438 L 307.199219 326.398438 L 307.199219 345.597656 L 288 345.597656 Z M 288 326.398438 "/>
<path style=" stroke:none;fill-rule:nonzero;fill:rgb(0%,0%,0%);fill-opacity:1;" d="M 307.199219 326.398438 L 326.398438 326.398438 L 326.398438 345.597656 L 307.199219 345.597656 Z M 307.199219 326.398438 "/>
<path style=" stroke:none;fill-rule:nonzero;fill:rgb(0%,0%,0%);fill-opacity:1;" d="M 384 326.398438 L 403.199219 326.398438 L 403.199219 345.597656 L 384 345.597656 Z M 384 326.398438 "/>
<path style=" stroke:none;fill-rule:nonzero;fill:rgb(0%,0%,0%);fill-opacity:1;" d="M 403.199219 326.398438 L 422.398438 326.398438 L 422.398438 345.597656 L 403.199219 345.597656 Z M 403.199219 326.398438 "/>
<path style=" stroke:none;fill-rule:nonzero;fill:rgb(0%,0%,0%);fill-opacity:1;" d="M 422.398438 326.398438 L 441.597656 326.398438 L 441.597656 345.597656 L 422.398438 345.597656 Z M 422.398438 326.398438 "/>
<path style=" stroke:none;fill-rule:nonzero;fill:rgb(0%,0%,0%);fill-opacity:1;" d="M 441.601562 326.398438 L 460.800781 326.398438 L 460.800781 345.597656 L 441.601562 345.597656 Z M 441.601562 326.398438 "/>
<path style=" stroke:none;fill-rule:nonzero;fill:rgb(0%,0%,0%);fill-opacity:1;" d="M 460.800781 326.398438 L 480 326.398438 L 480 345.597656 L 460.800781 345.597656 Z M 460.800781 326.398438 "/>
<path style=" stroke:none;fill-rule:nonzero;fill:rgb(0%,0%,0%);fill-opacity:1;" d="M 0 345.601562 L 19.199219 345.601562 L 19.199219 364.800781 L 0 364.800781 Z M 0 345.601562 "/>
<path style=" stroke:none;fill-rule:nonzero;fill:rgb(0%,0%,0%);fill-opacity:1;" d="M 19.199219 345.601562 L 38.398438 345.601562 L 38.398438 364.800781 L 19.199219 364.800781 Z M 19.199219 345.601562 "/>
<path style=" stroke:none;fill-rule:nonzero;fill:rgb(0%,0%,0%);fill-opacity:1;" d="M 38.398438 345.601562 L 57.597656 345.601562 L 57.597656 364.800781 L 38.398438 364.800781 Z M 38.398438 345.601562 "/>
<path style=" stroke:none;fill-rule:nonzero;fill:rgb(0%,0%,0%);fill-opacity:1;" d="M 57.601562 345.601562 L 76.800781 345.601562 L 76.800781 364.800781 L 57.601562 364.800781 Z M 57.601562 345.601562 "/>
<path style=" stroke:none;fill-rule:nonzero;fill:rgb(0%,0%,0%);fill-opacity:1;" d="M 76.800781 345.601562 L 96 345.601562 L 96 364.800781 L 76.800781 364.800781 Z M 76.800781 345.601562 "/>
<path style=" stroke:none;fill-rule:nonzero;fill:rgb(0%,0%,0%);fill-opacity:1;" d="M 96 345.601562 L 115.199219 345.601562 L 115.199219 364.800781 L 96 364.800781 Z M 96 345.601562 "/>
<path style=" stroke:none;fill-rule:nonzero;fill:rgb(0%,0%,0%);fill-opacity:1;" d="M 115.199219 345.601562 L 134.398438 345.601562 L 134.398438 364.800781 L 115.199219 364.800781 Z M 115.199219 345.601562 "/>
<path style=" stroke:none;fill-rule:nonzero;fill:rgb(0%,0%,0%);fill-opacity:1;" d="M 153.601562 345.601562 L 172.800781 345.601562 L 172.800781 364.800781 L 153.601562 364.800781 Z M 153.601562 345.601562 "/>
<path style=" stroke:none;fill-rule:nonzero;fill:rgb(0%,0%,0%);fill-opacity:1;" d="M 192 345.601562 L 211.199219 345.601562 L 211.199219 364.800781 L 192 364.800781 Z M 192 345.601562 "/>
<path style=" stroke:none;fill-rule:nonzero;fill:rgb(0%,0%,0%);fill-opacity:1;" d="M 211.199219 345.601562 L 230.398438 345.601562 L 230.398438 364.800781 L 211.199219 364.800781 Z M 211.199219 345.601562 "/>
<path style=" stroke:none;fill-rule:nonzero;fill:rgb(0%,0%,0%);fill-opacity:1;" d="M 230.398438 345.601562 L 249.597656 345.601562 L 249.597656 364.800781 L 230.398438 364.800781 Z M 230.398438 345.601562 "/>
<path style=" stroke:none;fill-rule:nonzero;fill:rgb(0%,0%,0%);fill-opacity:1;" d="M 268.800781 345.601562 L 288 345.601562 L 288 364.800781 L 268.800781 364.800781 Z M 268.800781 345.601562 "/>
<path style=" stroke:none;fill-rule:nonzero;fill:rgb(0%,0%,0%);fill-opacity:1;" d="M 288 345.601562 L 307.199219 345.601562 L 307.199219 364.800781 L 288 364.800781 Z M 288 345.601562 "/>
<path style=" stroke:none;fill-rule:nonzero;fill:rgb(0%,0%,0%);fill-opacity:1;" d="M 307.199219 345.601562 L 326.398438 345.601562 L 326.398438 364.800781 L 307.199219 364.800781 Z M 307.199219 345.601562 "/>
<path style=" stroke:none;fill-rule:nonzero;fill:rgb(0%,0%,0%);fill-opacity:1;" d="M 345.601562 345.601562 L 364.800781 345.601562 L 364.800781 364.800781 L 345.601562 364.800781 Z M 345.601562 345.601562 "/>
<path style=" stroke:none;fill-rule:nonzero;fill:rgb(0%,0%,0%);fill-opacity:1;" d="M 384 345.601562 L 403.199219 345.601562 L 403.199219 364.800781 L 384 364.800781 Z M 384 345.601562 "/>
<path style=" stroke:none;fill-rule:nonzero;fill:rgb(0%,0%,0%);fill-opacity:1;" d="M 441.601562 345.601562 L 460.800781 345.601562 L 460.800781 364.800781 L 441.601562 364.800781 Z M 441.601562 345.601562 "/>
<path style=" stroke:none;fill-rule:nonzero;fill:rgb(0%,0%,0%);fill-opacity:1;" d="M 460.800781 345.601562 L 480 345.601562 L 480 364.800781 L 460.800781 364.800781 Z M 460.800781 345.601562 "/>
<path style=" stroke:none;fill-rule:nonzero;fill:rgb(0%,0%,0%);fill-opacity:1;" d="M 0 364.800781 L 19.199219 364.800781 L 19.199219 384 L 0 384 Z M 0 364.800781 "/>
<path style=" stroke:none;fill-rule:nonzero;fill:rgb(0%,0%,0%);fill-opacity:1;" d="M 115.199219 364.800781 L 134.398438 364.800781 L 134.398438 384 L 115.199219 384 Z M 115.199219 364.800781 "/>
<path style=" stroke:none;fill-rule:nonzero;fill:rgb(0%,0%,0%);fill-opacity:1;" d="M 153.601562 364.800781 L 172.800781 364.800781 L 172.800781 384 L 153.601562 384 Z M 153.601562 364.800781 "/>
<path style=" stroke:none;fill-rule:nonzero;fill:rgb(0%,0%,0%);fill-opacity:1;" d="M 192 364.800781 L 211.199219 364.800781 L 211.199219 384 L 192 384 Z M 192 364.800781 "/>
<path style=" stroke:none;fill-rule:nonzero;fill:rgb(0%,0%,0%);fill-opacity:1;" d="M 230.398438 364.800781 L 249.597656 364.800781 L 249.597656 384 L 230.398438 384 Z M 230.398438 364.800781 "/>
<path style=" stroke:none;fill-rule:nonzero;fill:rgb(0%,0%,0%);fill-opacity:1;" d="M 249.601562 364.800781 L 268.800781 364.800781 L 268.800781 384 L 249.601562 384 Z M 249.601562 364.800781 "/>
<path style=" stroke:none;fill-rule:nonzero;fill:rgb(0%,0%,0%);fill-opacity:1;" d="M 268.800781 364.800781 L 288 364.800781 L 288 384 L 268.800781 384 Z M 268.800781 364.800781 "/>
<path style=" stroke:none;fill-rule:nonzero;fill:rgb(0%,0%,0%);fill-opacity:1;" d="M 307.199219 364.800781 L 326.398438 364.800781 L 326.398438 384 L 307.199219 384 Z M 307.199219 364.800781 "/>
<path style=" stroke:none;fill-rule:nonzero;fill:rgb(0%,0%,0%);fill-opacity:1;" d="M 384 364.800781 L 403.199219 364.800781 L 403.199219 384 L 384 384 Z M 384 364.800781 "/>
<path style=" stroke:none;fill-rule:nonzero;fill:rgb(0%,0%,0%);fill-opacity:1;" d="M 403.199219 364.800781 L 422.398438 364.800781 L 422.398438 384 L 403.199219 384 Z M 403.199219 364.800781 "/>
<path style=" stroke:none;fill-rule:nonzero;fill:rgb(0%,0%,0%);fill-opacity:1;" d="M 441.601562 364.800781 L 460.800781 364.800781 L 460.800781 384 L 441.601562 384 Z M 441.601562 364.800781 "/>
<path style=" stroke:none;fill-rule:nonzero;fill:rgb(0%,0%,0%);fill-opacity:1;" d="M 460.800781 364.800781 L 480 364.800781 L 480 384 L 460.800781 384 Z M 460.800781 364.800781 "/>
<path style=" stroke:none;fill-rule:nonzero;fill:rgb(0%,0%,0%);fill-opacity:1;" d="M 0 384 L 19.199219 384 L 19.199219 403.199219 L 0 403.199219 Z M 0 384 "/>
<path style=" stroke:none;fill-rule:nonzero;fill:rgb(0%,0%,0%);fill-opacity:1;" d="M 38.398438 384 L 57.597656 384 L 57.597656 403.199219 L 38.398438 403.199219 Z M 38.398438 384 "/>
<path style=" stroke:none;fill-rule:nonzero;fill:rgb(0%,0%,0%);fill-opacity:1;" d="M 57.601562 384 L 76.800781 384 L 76.800781 403.199219 L 57.601562 403.199219 Z M 57.601562 384 "/>
<path style=" stroke:none;fill-rule:nonzero;fill:rgb(0%,0%,0%);fill-opacity:1;" d="M 76.800781 384 L 96 384 L 96 403.199219 L 76.800781 403.199219 Z M 76.800781 384 "/>
<path style=" stroke:none;fill-rule:nonzero;fill:rgb(0%,0%,0%);fill-opacity:1;" d="M 115.199219 384 L 134.398438 384 L 134.398438 403.199219 L 115.199219 403.199219 Z M 115.199219 384 "/>
<path style=" stroke:none;fill-rule:nonzero;fill:rgb(0%,0%,0%);fill-opacity:1;" d="M 153.601562 384 L 172.800781 384 L 172.800781 403.199219 L 153.601562 403.199219 Z M 153.601562 384 "/>
<path style=" stroke:none;fill-rule:nonzero;fill:rgb(0%,0%,0%);fill-opacity:1;" d="M 211.199219 384 L 230.398438 384 L 230.398438 403.199219 L 211.199219 403.199219 Z M 211.199219 384 "/>
<path style=" stroke:none;fill-rule:nonzero;fill:rgb(0%,0%,0%);fill-opacity:1;" d="M 268.800781 384 L 288 384 L 288 403.199219 L 268.800781 403.199219 Z M 268.800781 384 "/>
<path style=" stroke:none;fill-rule:nonzero;fill:rgb(0%,0%,0%);fill-opacity:1;" d="M 307.199219 384 L 326.398438 384 L 326.398438 403.199219 L 307.199219 403.199219 Z M 307.199219 384 "/>
<path style=" stroke:none;fill-rule:nonzero;fill:rgb(0%,0%,0%);fill-opacity:1;" d="M 326.398438 384 L 345.597656 384 L 345.597656 403.199219 L 326.398438 403.199219 Z M 326.398438 384 "/>
<path style=" stroke:none;fill-rule:nonzero;fill:rgb(0%,0%,0%);fill-opacity:1;" d="M 345.601562 384 L 364.800781 384 L 364.800781 403.199219 L 345.601562 403.199219 Z M 345.601562 384 "/>
<path style=" stroke:none;fill-rule:nonzero;fill:rgb(0%,0%,0%);fill-opacity:1;" d="M 364.800781 384 L 384 384 L 384 403.199219 L 364.800781 403.199219 Z M 364.800781 384 "/>
<path style=" stroke:none;fill-rule:nonzero;fill:rgb(0%,0%,0%);fill-opacity:1;" d="M 384 384 L 403.199219 384 L 403.199219 403.199219 L 384 403.199219 Z M 384 384 "/>
<path style=" stroke:none;fill-rule:nonzero;fill:rgb(0%,0%,0%);fill-opacity:1;" d="M 460.800781 384 L 480 384 L 480 403.199219 L 460.800781 403.199219 Z M 460.800781 384 "/>
<path style=" stroke:none;fill-rule:nonzero;fill:rgb(0%,0%,0%);fill-opacity:1;" d="M 0 403.199219 L 19.199219 403.199219 L 19.199219 422.398438 L 0 422.398438 Z M 0 403.199219 "/>
<path style=" stroke:none;fill-rule:nonzero;fill:rgb(0%,0%,0%);fill-opacity:1;" d="M 38.398438 403.199219 L 57.597656 403.199219 L 57.597656 422.398438 L 38.398438 422.398438 Z M 38.398438 403.199219 "/>
<path style=" stroke:none;fill-rule:nonzero;fill:rgb(0%,0%,0%);fill-opacity:1;" d="M 57.601562 403.199219 L 76.800781 403.199219 L 76.800781 422.398438 L 57.601562 422.398438 Z M 57.601562 403.199219 "/>
<path style=" stroke:none;fill-rule:nonzero;fill:rgb(0%,0%,0%);fill-opacity:1;" d="M 76.800781 403.199219 L 96 403.199219 L 96 422.398438 L 76.800781 422.398438 Z M 76.800781 403.199219 "/>
<path style=" stroke:none;fill-rule:nonzero;fill:rgb(0%,0%,0%);fill-opacity:1;" d="M 115.199219 403.199219 L 134.398438 403.199219 L 134.398438 422.398438 L 115.199219 422.398438 Z M 115.199219 403.199219 "/>
<path style=" stroke:none;fill-rule:nonzero;fill:rgb(0%,0%,0%);fill-opacity:1;" d="M 211.199219 403.199219 L 230.398438 403.199219 L 230.398438 422.398438 L 211.199219 422.398438 Z M 211.199219 403.199219 "/>
<path style=" stroke:none;fill-rule:nonzero;fill:rgb(0%,0%,0%);fill-opacity:1;" d="M 268.800781 403.199219 L 288 403.199219 L 288 422.398438 L 268.800781 422.398438 Z M 268.800781 403.199219 "/>
<path style=" stroke:none;fill-rule:nonzero;fill:rgb(0%,0%,0%);fill-opacity:1;" d="M 288 403.199219 L 307.199219 403.199219 L 307.199219 422.398438 L 288 422.398438 Z M 288 403.199219 "/>
<path style=" stroke:none;fill-rule:nonzero;fill:rgb(0%,0%,0%);fill-opacity:1;" d="M 364.800781 403.199219 L 384 403.199219 L 384 422.398438 L 364.800781 422.398438 Z M 364.800781 403.199219 "/>
<path style=" stroke:none;fill-rule:nonzero;fill:rgb(0%,0%,0%);fill-opacity:1;" d="M 384 403.199219 L 403.199219 403.199219 L 403.199219 422.398438 L 384 422.398438 Z M 384 403.199219 "/>
<path style=" stroke:none;fill-rule:nonzero;fill:rgb(0%,0%,0%);fill-opacity:1;" d="M 422.398438 403.199219 L 441.597656 403.199219 L 441.597656 422.398438 L 422.398438 422.398438 Z M 422.398438 403.199219 "/>
<path style=" stroke:none;fill-rule:nonzero;fill:rgb(0%,0%,0%);fill-opacity:1;" d="M 0 422.398438 L 19.199219 422.398438 L 19.199219 441.597656 L 0 441.597656 Z M 0 422.398438 "/>
<path style=" stroke:none;fill-rule:nonzero;fill:rgb(0%,0%,0%);fill-opacity:1;" d="M 38.398438 422.398438 L 57.597656 422.398438 L 57.597656 441.597656 L 38.398438 441.597656 Z M 38.398438 422.398438 "/>
<path style=" stroke:none;fill-rule:nonzero;fill:rgb(0%,0%,0%);fill-opacity:1;" d="M 57.601562 422.398438 L 76.800781 422.398438 L 76.800781 441.597656 L 57.601562 441.597656 Z M 57.601562 422.398438 "/>
<path style=" stroke:none;fill-rule:nonzero;fill:rgb(0%,0%,0%);fill-opacity:1;" d="M 76.800781 422.398438 L 96 422.398438 L 96 441.597656 L 76.800781 441.597656 Z M 76.800781 422.398438 "/>
<path style=" stroke:none;fill-rule:nonzero;fill:rgb(0%,0%,0%);fill-opacity:1;" d="M 115.199219 422.398438 L 134.398438 422.398438 L 134.398438 441.597656 L 115.199219 441.597656 Z M 115.199219 422.398438 "/>
<path style=" stroke:none;fill-rule:nonzero;fill:rgb(0%,0%,0%);fill-opacity:1;" d="M 153.601562 422.398438 L 172.800781 422.398438 L 172.800781 441.597656 L 153.601562 441.597656 Z M 153.601562 422.398438 "/>
<path style=" stroke:none;fill-rule:nonzero;fill:rgb(0%,0%,0%);fill-opacity:1;" d="M 192 422.398438 L 211.199219 422.398438 L 211.199219 441.597656 L 192 441.597656 Z M 192 422.398438 "/>
<path style=" stroke:none;fill-rule:nonzero;fill:rgb(0%,0%,0%);fill-opacity:1;" d="M 249.601562 422.398438 L 268.800781 422.398438 L 268.800781 441.597656 L 249.601562 441.597656 Z M 249.601562 422.398438 "/>
<path style=" stroke:none;fill-rule:nonzero;fill:rgb(0%,0%,0%);fill-opacity:1;" d="M 326.398438 422.398438 L 345.597656 422.398438 L 345.597656 441.597656 L 326.398438 441.597656 Z M 326.398438 422.398438 "/>
<path style=" stroke:none;fill-rule:nonzero;fill:rgb(0%,0%,0%);fill-opacity:1;" d="M 364.800781 422.398438 L 384 422.398438 L 384 441.597656 L 364.800781 441.597656 Z M 364.800781 422.398438 "/>
<path style=" stroke:none;fill-rule:nonzero;fill:rgb(0%,0%,0%);fill-opacity:1;" d="M 384 422.398438 L 403.199219 422.398438 L 403.199219 441.597656 L 384 441.597656 Z M 384 422.398438 "/>
<path style=" stroke:none;fill-rule:nonzero;fill:rgb(0%,0%,0%);fill-opacity:1;" d="M 403.199219 422.398438 L 422.398438 422.398438 L 422.398438 441.597656 L 403.199219 441.597656 Z M 403.199219 422.398438 "/>
<path style=" stroke:none;fill-rule:nonzero;fill:rgb(0%,0%,0%);fill-opacity:1;" d="M 460.800781 422.398438 L 480 422.398438 L 480 441.597656 L 460.800781 441.597656 Z M 460.800781 422.398438 "/>
<path style=" stroke:none;fill-rule:nonzero;fill:rgb(0%,0%,0%);fill-opacity:1;" d="M 0 441.601562 L 19.199219 441.601562 L 19.199219 460.800781 L 0 460.800781 Z M 0 441.601562 "/>
<path style=" stroke:none;fill-rule:nonzero;fill:rgb(0%,0%,0%);fill-opacity:1;" d="M 115.199219 441.601562 L 134.398438 441.601562 L 134.398438 460.800781 L 115.199219 460.800781 Z M 115.199219 441.601562 "/>
<path style=" stroke:none;fill-rule:nonzero;fill:rgb(0%,0%,0%);fill-opacity:1;" d="M 153.601562 441.601562 L 172.800781 441.601562 L 172.800781 460.800781 L 153.601562 460.800781 Z M 153.601562 441.601562 "/>
<path style=" stroke:none;fill-rule:nonzero;fill:rgb(0%,0%,0%);fill-opacity:1;" d="M 192 441.601562 L 211.199219 441.601562 L 211.199219 460.800781 L 192 460.800781 Z M 192 441.601562 "/>
<path style=" stroke:none;fill-rule:nonzero;fill:rgb(0%,0%,0%);fill-opacity:1;" d="M 211.199219 441.601562 L 230.398438 441.601562 L 230.398438 460.800781 L 211.199219 460.800781 Z M 211.199219 441.601562 "/>
<path style=" stroke:none;fill-rule:nonzero;fill:rgb(0%,0%,0%);fill-opacity:1;" d="M 288 441.601562 L 307.199219 441.601562 L 307.199219 460.800781 L 288 460.800781 Z M 288 441.601562 "/>
<path style=" stroke:none;fill-rule:nonzero;fill:rgb(0%,0%,0%);fill-opacity:1;" d="M 307.199219 441.601562 L 326.398438 441.601562 L 326.398438 460.800781 L 307.199219 460.800781 Z M 307.199219 441.601562 "/>
<path style=" stroke:none;fill-rule:nonzero;fill:rgb(0%,0%,0%);fill-opacity:1;" d="M 384 441.601562 L 403.199219 441.601562 L 403.199219 460.800781 L 384 460.800781 Z M 384 441.601562 "/>
<path style=" stroke:none;fill-rule:nonzero;fill:rgb(0%,0%,0%);fill-opacity:1;" d="M 403.199219 441.601562 L 422.398438 441.601562 L 422.398438 460.800781 L 403.199219 460.800781 Z M 403.199219 441.601562 "/>
<path style=" stroke:none;fill-rule:nonzero;fill:rgb(0%,0%,0%);fill-opacity:1;" d="M 441.601562 441.601562 L 460.800781 441.601562 L 460.800781 460.800781 L 441.601562 460.800781 Z M 441.601562 441.601562 "/>
<path style=" stroke:none;fill-rule:nonzero;fill:rgb(0%,0%,0%);fill-opacity:1;" d="M 0 460.800781 L 19.199219 460.800781 L 19.199219 480 L 0 480 Z M 0 460.800781 "/>
<path style=" stroke:none;fill-rule:nonzero;fill:rgb(0%,0%,0%);fill-opacity:1;" d="M 19.199219 460.800781 L 38.398438 460.800781 L 38.398438 480 L 19.199219 480 Z M 19.199219 460.800781 "/>
<path style=" stroke:none;fill-rule:nonzero;fill:rgb(0%,0%,0%);fill-opacity:1;" d="M 38.398438 460.800781 L 57.597656 460.800781 L 57.597656 480 L 38.398438 480 Z M 38.398438 460.800781 "/>
<path style=" stroke:none;fill-rule:nonzero;fill:rgb(0%,0%,0%);fill-opacity:1;" d="M 57.601562 460.800781 L 76.800781 460.800781 L 76.800781 480 L 57.601562 480 Z M 57.601562 460.800781 "/>
<path style=" stroke:none;fill-rule:nonzero;fill:rgb(0%,0%,0%);fill-opacity:1;" d="M 76.800781 460.800781 L 96 460.800781 L 96 480 L 76.800781 480 Z M 76.800781 460.800781 "/>
<path style=" stroke:none;fill-rule:nonzero;fill:rgb(0%,0%,0%);fill-opacity:1;" d="M 96 460.800781 L 115.199219 460.800781 L 115.199219 480 L 96 480 Z M 96 460.800781 "/>
<path style=" stroke:none;fill-rule:nonzero;fill:rgb(0%,0%,0%);fill-opacity:1;" d="M 115.199219 460.800781 L 134.398438 460.800781 L 134.398438 480 L 115.199219 480 Z M 115.199219 460.800781 "/>
<path style=" stroke:none;fill-rule:nonzero;fill:rgb(0%,0%,0%);fill-opacity:1;" d="M 153.601562 460.800781 L 172.800781 460.800781 L 172.800781 480 L 153.601562 480 Z M 153.601562 460.800781 "/>
<path style=" stroke:none;fill-rule:nonzero;fill:rgb(0%,0%,0%);fill-opacity:1;" d="M 230.398438 460.800781 L 249.597656 460.800781 L 249.597656 480 L 230.398438 480 Z M 230.398438 460.800781 "/>
<path style=" stroke:none;fill-rule:nonzero;fill:rgb(0%,0%,0%);fill-opacity:1;" d="M 288 460.800781 L 307.199219 460.800781 L 307.199219 480 L 288 480 Z M 288 460.800781 "/>
<path style=" stroke:none;fill-rule:nonzero;fill:rgb(0%,0%,0%);fill-opacity:1;" d="M 307.199219 460.800781 L 326.398438 460.800781 L 326.398438 480 L 307.199219 480 Z M 307.199219 460.800781 "/>
<path style=" stroke:none;fill-rule:nonzero;fill:rgb(0%,0%,0%);fill-opacity:1;" d="M 345.601562 460.800781 L 364.800781 460.800781 L 364.800781 480 L 345.601562 480 Z M 345.601562 460.800781 "/>
<path style=" stroke:none;fill-rule:nonzero;fill:rgb(0%,0%,0%);fill-opacity:1;" d="M 364.800781 460.800781 L 384 460.800781 L 384 480 L 364.800781 480 Z M 364.800781 460.800781 "/>
<path style=" stroke:none;fill-rule:nonzero;fill:rgb(0%,0%,0%);fill-opacity:1;" d="M 441.601562 460.800781 L 460.800781 460.800781 L 460.800781 480 L 441.601562 480 Z M 441.601562 460.800781 "/>
<path style=" stroke:none;fill-rule:nonzero;fill:rgb(0%,0%,0%);fill-opacity:1;" d="M 460.800781 460.800781 L 480 460.800781 L 480 480 L 460.800781 480 Z M 460.800781 460.800781 "/>
</g>
</svg>
